<?xml version="1.0" encoding="UTF-8" standalone="no"?><!DOCTYPE svg PUBLIC "-//W3C//DTD SVG 1.1//EN" "http://www.w3.org/Graphics/SVG/1.1/DTD/svg11.dtd"><svg width="100%" height="100%" viewBox="0 0 1781 504" version="1.1" xmlns="http://www.w3.org/2000/svg" xmlns:xlink="http://www.w3.org/1999/xlink" xml:space="preserve" xmlns:serif="http://www.serif.com/" style="fill-rule:evenodd;clip-rule:evenodd;stroke-linejoin:round;stroke-miterlimit:2;"><path d="M147.038,147.751l-7.309,35.684l-54.6,0l-19.779,104.904c-1.433,8.025 -2.15,14.471 -2.15,19.346c0,12.325 6.737,18.487 20.208,18.487c9.459,0 18.917,-1.004 28.375,-3.012l-3.441,37.408c-14.042,3.154 -27.946,4.725 -41.7,4.725c-33.538,0 -50.305,-14.471 -50.305,-43.421c0,-7.737 1.005,-16.912 3.009,-27.517l21.071,-110.92l-40.417,0l7.308,-35.684l39.988,0l12.896,-67.929l46.862,-9.887l-15.05,77.816l55.033,0Z" style="fill:#fcb700;fill-rule:nonzero;"/><path d="M288.452,199.772c0,-14.617 -8.596,-21.925 -25.796,-21.925c-14.616,0 -27.371,6.02 -38.262,18.058c-10.034,10.892 -17.342,25.075 -21.925,42.563c57.321,-2.009 85.983,-14.909 85.983,-38.696m45.142,-6.017c0,47.863 -45.571,73.371 -136.717,76.525c-1.146,7.454 -1.721,14.621 -1.721,21.496c0,14.333 3.084,24.075 9.246,29.237c6.163,5.159 17.413,7.738 33.75,7.738c20.35,0 40.7,-4.154 61.05,-12.467l0,36.113c-23.792,8.887 -49.154,13.329 -76.1,13.329c-49.296,0 -73.946,-23.65 -73.946,-70.938c0,-42.996 11.25,-78.962 33.75,-107.912c22.5,-28.95 50.8,-43.425 84.909,-43.425c22.641,0 39.7,5.158 51.162,15.479c9.746,8.883 14.617,20.492 14.617,34.825" style="fill:#fcb700;fill-rule:nonzero;"/><path d="M516.284,149.9l-10.75,39.983c-11.175,-5.158 -23.358,-7.738 -36.541,-7.738c-22.93,0 -41.275,11.18 -55.034,33.534c-11.75,19.204 -17.625,41.558 -17.625,67.066c0,28.092 13.759,42.138 41.275,42.138c16.338,0 31.238,-3.154 44.713,-9.458l-3.442,40.408c-18.342,6.308 -36.4,9.462 -54.171,9.462c-51.016,0 -76.529,-24.075 -76.529,-72.229c0,-42.133 11.038,-77.241 33.108,-105.333c22.93,-29.233 53.167,-43.85 90.713,-43.85c15.192,0 29.954,2.004 44.283,6.017" style="fill:#fcb700;fill-rule:nonzero;"/><path d="M740.568,103.796c0,-37.617 -24.308,-56.425 -72.925,-56.425c-8.871,0 -18.983,0.354 -30.342,1.066l0,113.913c7.1,0.708 16.504,1.062 28.213,1.062c23.066,0 41.341,-5.412 54.829,-16.233c13.483,-10.825 20.225,-25.283 20.225,-43.383m84.104,257.629l-72.925,0l-111.783,-155.429l-2.663,0l0,155.429l-58.016,0l0,-359.296c23.066,-1.421 55.179,-2.129 96.345,-2.129c83.746,0 125.617,32.467 125.617,97.408c0,28.034 -9.4,51.009 -28.212,68.934c-18.805,17.92 -43.292,28.475 -73.455,31.67c7.1,8.871 17.213,21.646 30.342,38.325l94.75,125.088Z" style="fill:#fff;fill-rule:nonzero;"/><path d="M1014.83,266.145l-28.741,-77.712c-5.325,-13.842 -10.117,-28.392 -14.375,-43.65l-0.534,0c-2.833,12.067 -7.454,26.437 -13.837,43.117l-29.809,78.245l87.296,0Zm97.942,95.28l-63.875,0l-19.696,-53.759l-115.504,0l-20.229,53.759l-57.488,0l104.859,-276.792l67.604,0l104.329,276.792Z" style="fill:#fff;fill-rule:nonzero;"/><path d="M1329.37,352.909c-23.421,8.158 -48.262,12.241 -74.525,12.241c-44.354,0 -78.421,-12.241 -102.196,-36.729c-22.712,-23.416 -34.071,-56.6 -34.071,-99.537c0,-42.229 11.892,-76.65 35.667,-103.263c26.613,-29.808 64.409,-44.712 113.379,-44.712c22.355,0 42.225,2.479 59.613,7.45l-5.321,50.571c-19.521,-6.392 -39.033,-9.584 -58.554,-9.584c-26.613,0 -47.196,8.692 -61.742,26.079c-14.55,17.392 -21.825,40.1 -21.825,68.138c0,29.45 7.538,51.987 22.621,67.6c15.079,15.612 36.463,23.421 64.142,23.421c20.933,0 40.279,-4.259 58.02,-12.775l4.792,51.1Z" style="fill:#fff;fill-rule:nonzero;"/><path d="M1533.73,361.425l-162.883,0l0,-276.791l162.883,0l0,45.246l-105.396,0l0,67.6l100.608,0l0,43.645l-100.608,0l0,74.525l105.396,0l0,45.775Z" style="fill:#fff;fill-rule:nonzero;"/><path d="M1704.05,165.541c0,-25.55 -17.391,-38.325 -52.166,-38.325c-11.354,0 -19.517,0.354 -24.484,1.067l0,79.842c10.642,0.708 19.513,1.066 26.613,1.066c15.258,0 27.412,-3.991 36.462,-11.975c9.05,-7.987 13.575,-18.546 13.575,-31.675m76.117,195.884l-70.796,0l-79.312,-113.909l-2.659,0l0,113.909l-57.487,0l0,-276.792c20.225,-1.063 50.387,-1.596 90.487,-1.596c69.555,0 104.33,25.55 104.33,76.65c0,22 -6.83,39.833 -20.492,53.496c-13.663,13.658 -32.025,22.267 -55.092,25.817c1.417,1.416 8.871,11.35 22.354,29.808l68.667,92.617Z" style="fill:#fff;fill-rule:nonzero;"/><path d="M625.309,428.482l-2.212,8.105c-3.605,-1.25 -7.179,-1.884 -10.725,-1.884c-7.1,0 -12.584,3.063 -16.463,9.171c-3.221,5.138 -4.829,11.358 -4.829,18.675c0,8.463 4.342,12.696 13.021,12.696c4.421,0 8.516,-0.825 12.283,-2.458l-0.575,8.104c-4.583,1.583 -9.362,2.375 -14.329,2.375c-13.488,0 -20.229,-6.359 -20.229,-19.079c0,-10.267 2.704,-18.892 8.108,-25.88c5.95,-7.641 13.95,-11.466 23.996,-11.466c4.146,0 8.133,0.55 11.954,1.641" style="fill:#fff;fill-rule:nonzero;"/><path d="M652.252,422.831l-11.383,59.783l-8.596,0l11.379,-59.783l8.6,0Z" style="fill:#fff;fill-rule:nonzero;"/><path d="M690.903,456.896c0,-5.566 -2.595,-8.35 -7.779,-8.35c-3.987,0 -7.316,1.992 -9.991,5.979c-2.455,3.709 -3.684,8.021 -3.684,12.938c0,5.625 2.538,8.437 7.617,8.437c3.875,0 7.15,-1.845 9.825,-5.533c2.675,-3.683 4.012,-8.175 4.012,-13.471m9.092,-0.979c0,8.079 -2.458,14.742 -7.371,19.983c-4.696,5.021 -10.291,7.53 -16.787,7.53c-10.263,0 -15.396,-4.859 -15.396,-14.575c0,-8.134 2.346,-14.85 7.042,-20.146c4.587,-5.079 10.237,-7.617 16.954,-7.617c10.371,0 15.558,4.942 15.558,14.825" style="fill:#fff;fill-rule:nonzero;"/><path d="M752.895,441.91l-4.092,21.292c-0.329,1.746 -1.533,8.217 -3.604,19.413l-8.437,0c0.658,-3.496 2.021,-8.325 4.096,-14.496l-0.163,-0.084c-4.858,10.317 -10.867,15.475 -18.017,15.475c-6.062,0 -9.091,-3.137 -9.091,-9.412c0,-1.313 0.162,-2.763 0.491,-4.342l5.325,-27.846l8.517,0l-4.913,25.796c-0.274,1.534 -0.408,2.813 -0.408,3.85c0,2.946 1.171,4.425 3.517,4.425c3.112,0 6.446,-2.841 9.991,-8.516c3.275,-5.242 5.409,-10.538 6.388,-15.892l1.804,-9.663l8.596,0Z" style="fill:#fff;fill-rule:nonzero;"/><path d="M794.169,448.791c-1.746,-0.492 -3.496,-0.738 -5.242,-0.738c-5.021,0 -8.95,2.375 -11.792,7.125c-2.458,4.038 -3.683,8.763 -3.683,14.167c0,4.421 1.225,6.633 3.683,6.633c3.167,0 6.55,-2.891 10.155,-8.683c3.166,-5.183 5.266,-10.371 6.304,-15.554l0.575,-2.95Zm13.512,-25.959l-8.6,45.121c-1.2,6.446 -2.1,11.325 -2.7,14.659l-8.437,0c0.491,-2.73 1.912,-7.696 4.258,-14.905l-0.162,-0.079c-5.35,10.588 -11.409,15.884 -18.18,15.884c-6.166,0 -9.254,-4.205 -9.254,-12.609c0,-8.246 2.075,-15.071 6.221,-20.475c4.646,-6.112 11.167,-9.175 19.575,-9.175c1.692,0 3.383,0.113 5.075,0.334l3.525,-18.755l8.679,0Z" style="fill:#fff;fill-rule:nonzero;"/><path d="M879.663,427.335l-1.475,7.454l-19.733,0l-3.03,15.721l18.917,0l-1.475,7.292l-18.833,0l-3.275,17.191l19.812,0l-1.391,7.621l-28.58,0l10.484,-55.279l28.579,0Z" style="fill:#fff;fill-rule:nonzero;"/><path d="M926.176,454.768l-5.321,27.846l-8.6,0l4.996,-25.8c0.275,-1.529 0.408,-2.812 0.408,-3.85c0,-2.946 -1.171,-4.417 -3.521,-4.417c-3.112,0 -6.441,2.838 -9.987,8.517c-3.275,5.242 -5.409,10.533 -6.388,15.883l-1.804,9.667l-8.596,0l4.092,-21.296c1.529,-7.912 2.704,-14.383 3.521,-19.408l8.521,0c-0.713,3.604 -2.105,8.433 -4.18,14.5l0.163,0.079c4.971,-10.317 11,-15.479 18.1,-15.479c6.062,0 9.087,3.137 9.087,9.417c0,1.312 -0.162,2.758 -0.491,4.341" style="fill:#fff;fill-rule:nonzero;"/><path d="M969.905,448.791c-1.745,-0.492 -3.491,-0.738 -5.241,-0.738c-5.021,0 -8.95,2.375 -11.792,7.125c-2.454,4.038 -3.683,8.763 -3.683,14.167c0,4.421 1.229,6.633 3.683,6.633c3.171,0 6.55,-2.891 10.158,-8.683c3.163,-5.183 5.263,-10.371 6.305,-15.554l0.57,-2.95Zm9.746,-6.309c-3.821,19.875 -6.333,33.25 -7.533,40.13l-8.517,0c0.763,-3.438 2.213,-8.409 4.338,-14.905l-0.163,-0.079c-5.35,10.588 -11.408,15.884 -18.179,15.884c-6.167,0 -9.254,-4.205 -9.254,-12.609c0,-8.246 2.075,-15.071 6.225,-20.475c4.642,-6.112 11.162,-9.175 19.575,-9.175c4.858,0 9.362,0.413 13.508,1.229" style="fill:#fff;fill-rule:nonzero;"/><path d="M1022.07,455.179c0,-4.425 -1.225,-6.633 -3.683,-6.633c-3.221,0 -6.609,2.866 -10.154,8.6c-3.275,5.237 -5.38,10.4 -6.305,15.479l-0.575,3.108c1.859,0.492 3.605,0.734 5.242,0.734c5.021,0 8.954,-2.371 11.792,-7.125c2.458,-4.034 3.683,-8.759 3.683,-14.163m8.846,-1.558c0,8.246 -2.075,15.066 -6.225,20.475c-4.638,6.116 -11.163,9.171 -19.571,9.171c-4.854,0 -9.358,-0.463 -13.512,-1.392l11.3,-59.046l8.516,0l-3.516,18.675c-0.55,2.783 -2.05,7.858 -4.505,15.229l0.163,0.084c4.804,-10.538 10.808,-15.805 18.017,-15.805c6.22,0 9.333,4.2 9.333,12.609" style="fill:#fff;fill-rule:nonzero;"/><path d="M1062.61,422.831l-11.384,59.783l-8.6,0l11.384,-59.783l8.6,0Z" style="fill:#fff;fill-rule:nonzero;"/><path d="M1087.01,441.91l-7.78,40.705l-8.6,0l7.784,-40.705l8.596,0Zm3.437,-11.875c-0.054,1.642 -0.667,3.017 -1.842,4.142c-1.17,1.117 -2.524,1.675 -4.054,1.675c-1.529,0 -2.8,-0.517 -3.808,-1.554c-1.008,-1.038 -1.483,-2.267 -1.433,-3.688c0.058,-1.633 0.67,-3.004 1.845,-4.091c1.171,-1.092 2.551,-1.642 4.134,-1.642c1.475,0 2.716,0.508 3.725,1.517c1.012,1.012 1.492,2.229 1.433,3.641" style="fill:#fff;fill-rule:nonzero;"/><path d="M1137.54,454.768l-5.321,27.846l-8.6,0l4.996,-25.8c0.275,-1.529 0.409,-2.812 0.409,-3.85c0,-2.946 -1.171,-4.417 -3.521,-4.417c-3.113,0 -6.442,2.838 -9.988,8.517c-3.275,5.242 -5.408,10.533 -6.387,15.883l-1.804,9.667l-8.596,0l4.091,-21.296c1.53,-7.912 2.7,-14.383 3.525,-19.408l8.517,0c-0.712,3.604 -2.104,8.433 -4.179,14.5l0.162,0.079c4.971,-10.317 11,-15.479 18.1,-15.479c6.063,0 9.088,3.137 9.088,9.417c0,1.312 -0.163,2.758 -0.492,4.341" style="fill:#fff;fill-rule:nonzero;"/><path d="M1181.27,448.791c-1.75,-0.492 -3.496,-0.738 -5.246,-0.738c-5.021,0 -8.95,2.375 -11.791,7.125c-2.455,4.038 -3.684,8.763 -3.684,14.167c0,4.421 1.229,6.633 3.684,6.633c3.17,0 6.55,-2.891 10.158,-8.683c3.162,-5.183 5.267,-10.371 6.304,-15.554l0.575,-2.95Zm9.742,-6.309l-8.35,43.325c-2.238,11.684 -10.321,17.525 -24.242,17.525c-4.146,0 -7.946,-0.55 -11.383,-1.641l2.046,-8.271c3.279,1.583 6.933,2.375 10.975,2.375c8.191,0 13.02,-3.821 14.495,-11.467c0.763,-3.983 2.292,-9.441 4.584,-16.375l-0.163,0c-5.241,10.375 -11.246,15.559 -18.016,15.559c-6.167,0 -9.255,-4.205 -9.255,-12.609c0,-8.246 2.075,-15.071 6.225,-20.475c4.692,-6.112 11.221,-9.175 19.575,-9.175c4.859,0 9.363,0.413 13.509,1.229" style="fill:#fff;fill-rule:nonzero;"/><path d="M1275.11,427.335l-23.992,35.542l-3.767,19.737l-8.679,0l3.684,-19.737l-10.155,-35.542l9.171,0l4.667,17.446c0.767,2.837 1.475,5.946 2.129,9.333l0.163,0c0.929,-1.692 3.087,-5.162 6.47,-10.4l10.563,-16.379l9.746,0Z" style="fill:#fff;fill-rule:nonzero;"/><path d="M1308.93,456.896c0,-5.566 -2.591,-8.35 -7.779,-8.35c-3.983,0 -7.312,1.992 -9.991,5.979c-2.455,3.709 -3.684,8.021 -3.684,12.938c0,5.625 2.538,8.437 7.617,8.437c3.871,0 7.154,-1.845 9.825,-5.533c2.679,-3.683 4.012,-8.175 4.012,-13.471m9.092,-0.979c0,8.079 -2.458,14.742 -7.371,19.983c-4.696,5.021 -10.291,7.53 -16.787,7.53c-10.263,0 -15.396,-4.859 -15.396,-14.575c0,-8.134 2.35,-14.85 7.042,-20.146c4.583,-5.079 10.237,-7.617 16.95,-7.617c10.375,0 15.562,4.942 15.562,14.825" style="fill:#fff;fill-rule:nonzero;"/><path d="M1370.93,441.91l-4.092,21.292c-0.329,1.746 -1.533,8.217 -3.604,19.413l-8.433,0c0.654,-3.496 2.016,-8.325 4.091,-14.496l-0.162,-0.084c-4.859,10.317 -10.867,15.475 -18.017,15.475c-6.058,0 -9.092,-3.137 -9.092,-9.412c0,-1.313 0.163,-2.763 0.496,-4.342l5.321,-27.846l8.517,0l-4.917,25.796c-0.267,1.534 -0.404,2.813 -0.404,3.85c0,2.946 1.171,4.425 3.517,4.425c3.112,0 6.445,-2.841 9.995,-8.516c3.275,-5.242 5.405,-10.538 6.384,-15.892l1.804,-9.663l8.596,0Z" style="fill:#fff;fill-rule:nonzero;"/><path d="M1411.46,441.092l-1.8,8.434c-0.433,-0.109 -0.875,-0.163 -1.308,-0.163c-3.113,0 -6.225,2.592 -9.338,7.784c-2.946,4.804 -4.996,10.287 -6.141,16.458l-1.721,9.008l-8.596,0l4.092,-21.296c0.875,-4.475 2.05,-10.941 3.525,-19.408l8.354,0c-0.604,3.496 -1.888,8.083 -3.85,13.763l0.162,0.083c2.346,-4.808 4.529,-8.354 6.55,-10.65c2.563,-2.783 5.35,-4.175 8.354,-4.175c0.546,0 1.117,0.058 1.717,0.162" style="fill:#fff;fill-rule:nonzero;"/><path d="M1473.13,464.27c0,-4.534 -3.521,-6.8 -10.563,-6.8c-3.17,0 -5.158,0.029 -5.979,0.083l-3.358,17.604c1.475,0.275 3.492,0.413 6.062,0.413c4.313,0 7.75,-1.121 10.317,-3.359c2.35,-2.125 3.521,-4.775 3.521,-7.941m3.687,-24.325c0,-3.821 -2.95,-5.73 -8.845,-5.73c-1.909,0 -4.234,0.055 -6.963,0.163l-3.192,16.379c0.984,0.058 2.43,0.079 4.338,0.079c4.312,0 7.837,-0.966 10.562,-2.904c2.734,-1.942 4.1,-4.6 4.1,-7.987m9.334,-1.967c0,3.771 -1.171,7.046 -3.521,9.829c-2.021,2.458 -4.671,4.317 -7.946,5.571l0,0.079c2.404,0.546 4.3,1.763 5.692,3.646c1.391,1.883 2.087,4.054 2.087,6.512c0,5.405 -2.129,9.909 -6.383,13.509c-4.533,3.825 -10.538,5.733 -18.017,5.733c-1.312,0 -3.496,-0.025 -6.55,-0.083c-4.041,-0.109 -6.854,-0.163 -8.437,-0.163l10.483,-55.275c8.517,-0.162 14.088,-0.246 16.708,-0.246c10.588,0 15.884,3.63 15.884,10.888" style="fill:#fff;fill-rule:nonzero;"/><path d="M1537.25,441.91l-4.092,21.292c-0.329,1.746 -1.534,8.217 -3.604,19.413l-8.434,0c0.655,-3.496 2.017,-8.325 4.092,-14.496l-0.163,-0.084c-4.858,10.317 -10.866,15.475 -18.016,15.475c-6.059,0 -9.092,-3.137 -9.092,-9.412c0,-1.313 0.163,-2.763 0.496,-4.342l5.321,-27.846l8.517,0l-4.917,25.796c-0.267,1.534 -0.404,2.813 -0.404,3.85c0,2.946 1.17,4.425 3.516,4.425c3.113,0 6.446,-2.841 9.996,-8.516c3.275,-5.242 5.404,-10.538 6.383,-15.892l1.805,-9.663l8.595,0Z" style="fill:#fff;fill-rule:nonzero;"/><path d="M1575.49,441.747l-1.642,6.88c-1.633,-0.6 -3.575,-0.9 -5.812,-0.9c-4.854,0 -7.288,1.745 -7.288,5.237c0,1.533 1.009,3.196 3.03,5c1.804,1.579 3.633,3.163 5.487,4.746c2.021,2.187 3.029,4.562 3.029,7.125c0,3.658 -1.5,6.771 -4.504,9.337c-3.325,2.838 -7.833,4.259 -13.512,4.259c-2.455,0 -4.771,-0.221 -6.959,-0.654l1.475,-7.534c2.238,0.709 4.392,1.063 6.471,1.063c5.35,0 8.021,-1.854 8.021,-5.567c0,-1.583 -0.979,-3.196 -2.946,-4.833c-3.604,-3.059 -5.458,-4.613 -5.571,-4.667c-1.962,-2.129 -2.946,-4.587 -2.946,-7.371c0,-3.708 1.392,-6.741 4.175,-9.087c3.005,-2.459 7.184,-3.688 12.53,-3.688c2.458,0 4.779,0.221 6.962,0.654" style="fill:#fff;fill-rule:nonzero;"/><path d="M1603.26,441.91l-7.779,40.705l-8.604,0l7.783,-40.705l8.6,0Zm3.438,-11.875c-0.055,1.642 -0.671,3.017 -1.842,4.142c-1.171,1.117 -2.525,1.675 -4.054,1.675c-1.529,0 -2.8,-0.517 -3.809,-1.554c-1.008,-1.038 -1.487,-2.267 -1.433,-3.688c0.054,-1.633 0.671,-3.004 1.846,-4.091c1.171,-1.092 2.55,-1.642 4.133,-1.642c1.471,0 2.717,0.508 3.725,1.517c1.013,1.012 1.488,2.229 1.434,3.641" style="fill:#fff;fill-rule:nonzero;"/><path d="M1653.78,454.768l-5.321,27.846l-8.6,0l4.992,-25.8c0.275,-1.529 0.412,-2.812 0.412,-3.85c0,-2.946 -1.17,-4.417 -3.525,-4.417c-3.108,0 -6.441,2.838 -9.987,8.517c-3.275,5.242 -5.404,10.533 -6.388,15.883l-1.8,9.667l-8.6,0l4.096,-21.296c1.529,-7.912 2.7,-14.383 3.521,-19.408l8.517,0c-0.709,3.604 -2.104,8.433 -4.175,14.5l0.162,0.079c4.967,-10.317 10.996,-15.479 18.1,-15.479c6.059,0 9.088,3.137 9.088,9.417c0,1.312 -0.167,2.758 -0.492,4.341" style="fill:#fff;fill-rule:nonzero;"/><path d="M1694.64,451.822c0,-2.787 -1.642,-4.179 -4.917,-4.179c-2.783,0 -5.212,1.146 -7.287,3.438c-1.913,2.075 -3.304,4.779 -4.175,8.112c10.917,-0.383 16.379,-2.841 16.379,-7.371m8.596,-1.145c0,9.112 -8.679,13.975 -26.042,14.575c-0.216,1.416 -0.329,2.783 -0.329,4.091c0,2.729 0.592,4.592 1.763,5.571c1.17,0.983 3.316,1.475 6.429,1.475c3.875,0 7.754,-0.792 11.629,-2.375l0,6.879c-4.533,1.692 -9.363,2.538 -14.492,2.538c-9.391,0 -14.087,-4.504 -14.087,-13.513c0,-8.187 2.141,-15.041 6.429,-20.554c4.283,-5.512 9.675,-8.271 16.175,-8.271c4.312,0 7.558,0.984 9.746,2.95c1.854,1.692 2.779,3.9 2.779,6.634" style="fill:#fff;fill-rule:nonzero;"/><path d="M1740.75,441.747l-1.637,6.88c-1.638,-0.6 -3.575,-0.9 -5.813,-0.9c-4.858,0 -7.287,1.745 -7.287,5.237c0,1.533 1.008,3.196 3.025,5c1.804,1.579 3.633,3.163 5.491,4.746c2.017,2.187 3.025,4.562 3.025,7.125c0,3.658 -1.496,6.771 -4.504,9.337c-3.325,2.838 -7.833,4.259 -13.508,4.259c-2.459,0 -4.775,-0.221 -6.963,-0.654l1.475,-7.534c2.238,0.709 4.396,1.063 6.471,1.063c5.35,0 8.025,-1.854 8.025,-5.567c0,-1.583 -0.983,-3.196 -2.95,-4.833c-3.6,-3.059 -5.458,-4.613 -5.567,-4.667c-1.962,-2.129 -2.95,-4.587 -2.95,-7.371c0,-3.708 1.392,-6.741 4.175,-9.087c3.009,-2.459 7.184,-3.688 12.534,-3.688c2.454,0 4.775,0.221 6.958,0.654" style="fill:#fff;fill-rule:nonzero;"/><path d="M1778.75,441.747l-1.642,6.88c-1.634,-0.6 -3.575,-0.9 -5.813,-0.9c-4.858,0 -7.287,1.745 -7.287,5.237c0,1.533 1.008,3.196 3.029,5c1.8,1.579 3.633,3.163 5.488,4.746c2.02,2.187 3.029,4.562 3.029,7.125c0,3.658 -1.5,6.771 -4.505,9.337c-3.329,2.838 -7.837,4.259 -13.512,4.259c-2.458,0 -4.775,-0.221 -6.962,-0.654l1.479,-7.534c2.237,0.709 4.391,1.063 6.471,1.063c5.345,0 8.02,-1.854 8.02,-5.567c0,-1.583 -0.983,-3.196 -2.95,-4.833c-3.6,-3.059 -5.458,-4.613 -5.566,-4.667c-1.963,-2.129 -2.95,-4.587 -2.95,-7.371c0,-3.708 1.391,-6.741 4.179,-9.087c3.004,-2.459 7.179,-3.688 12.529,-3.688c2.458,0 4.779,0.221 6.963,0.654" style="fill:#fff;fill-rule:nonzero;"/></svg>